<svg width="26" height="26" viewBox="0 0 26 26" fill="none" xmlns="http://www.w3.org/2000/svg">
<path d="M23.5156 13.7077V12.283L25.352 10.7185C25.6905 10.4281 25.9126 10.0304 25.9791 9.59588C26.0456 9.16135 25.9522 8.71792 25.7154 8.34396L23.4583 4.61913C23.2905 4.33629 23.0494 4.10136 22.759 3.93792C22.4685 3.77447 22.1391 3.68826 21.8036 3.68792C21.5958 3.68637 21.389 3.71783 21.1915 3.78105L18.8674 4.54464C18.4662 4.28502 18.0476 4.0517 17.6145 3.84623L17.1268 1.49959C17.0393 1.07086 16.7998 0.685749 16.4501 0.411659C16.1003 0.137569 15.6628 -0.00803277 15.2139 0.000342154H10.7379C10.289 -0.00803277 9.85145 0.137569 9.50175 0.411659C9.15205 0.685749 8.9125 1.07086 8.82504 1.49959L8.33727 3.84623C7.90108 4.05165 7.47933 4.28497 7.07479 4.54464L4.79851 3.7438C4.59891 3.69316 4.3922 3.67429 4.18641 3.68792C3.85097 3.68826 3.52151 3.77447 3.2311 3.93792C2.94069 4.10136 2.69952 4.33629 2.5318 4.61913L0.274652 8.34396C0.051411 8.71737 -0.0315444 9.15472 0.0399935 9.58113C0.111531 10.0075 0.333111 10.3965 0.666784 10.6813L2.47442 12.2923V13.717L0.666784 15.2815C0.323686 15.5683 0.0960455 15.9642 0.0242598 16.3989C-0.047526 16.8336 0.0411858 17.279 0.274652 17.656L2.5318 21.3809C2.69952 21.6637 2.94069 21.8986 3.2311 22.0621C3.52151 22.2255 3.85097 22.3117 4.18641 22.3121C4.39428 22.3136 4.60103 22.2822 4.79851 22.219L7.12261 21.4554C7.52387 21.715 7.94243 21.9483 8.37552 22.1538L8.8633 24.5004C8.95076 24.9291 9.1903 25.3143 9.54001 25.5883C9.88971 25.8624 10.3273 26.008 10.7761 25.9997H15.2904C15.7393 26.008 16.1769 25.8624 16.5266 25.5883C16.8763 25.3143 17.1158 24.9291 17.2033 24.5004L17.691 22.1538C18.1272 21.9483 18.549 21.715 18.9535 21.4554L21.2681 22.219C21.4655 22.2822 21.6723 22.3136 21.8802 22.3121C22.2156 22.3117 22.5451 22.2255 22.8355 22.0621C23.1259 21.8986 23.367 21.6637 23.5348 21.3809L25.7154 17.656C25.9386 17.2826 26.0216 16.8453 25.9501 16.4189C25.8785 15.9925 25.6569 15.6035 25.3233 15.3187L23.5156 13.7077ZM21.8036 20.4497L18.5231 19.3695C17.7552 20.0028 16.8775 20.4978 15.9312 20.8315L15.2522 24.1745H10.7379L10.0588 20.8687C9.12002 20.5256 8.24709 20.0314 7.47649 19.4067L4.18641 20.4497L1.92926 16.7248L4.53072 14.4899C4.35387 13.526 4.35387 12.5392 4.53072 11.5753L1.92926 9.27517L4.18641 5.55034L7.46693 6.63054C8.23487 5.99722 9.11254 5.50215 10.0588 5.16854L10.7379 1.82551H15.2522L15.9312 5.1313C16.87 5.47437 17.743 5.96858 18.5136 6.59329L21.8036 5.55034L24.0608 9.27517L21.4593 11.5101C21.6362 12.474 21.6362 13.4608 21.4593 14.4247L24.0608 16.7248L21.8036 20.4497Z" fill="#404040"/>
<path d="M12.9944 18.5871C11.8594 18.5871 10.7499 18.2594 9.80623 17.6455C8.86253 17.0315 8.12702 16.1589 7.69268 15.138C7.25835 14.1171 7.1447 12.9936 7.36613 11.9098C7.58755 10.826 8.13409 9.83046 8.93663 9.04907C9.73918 8.26768 10.7617 7.73554 11.8748 7.51996C12.988 7.30437 14.1418 7.41502 15.1904 7.8379C16.239 8.26079 17.1352 8.97692 17.7658 9.89574C18.3963 10.8146 18.7329 11.8948 18.7329 12.9998C18.7406 13.7357 18.5974 14.4655 18.3117 15.1468C18.026 15.828 17.6036 16.447 17.0692 16.9673C16.5348 17.4876 15.8992 17.8989 15.1995 18.177C14.4998 18.4551 13.7501 18.5946 12.9944 18.5871ZM12.9944 9.27502C12.4888 9.26355 11.986 9.35205 11.5165 9.53519C11.0471 9.71832 10.6206 9.99226 10.263 10.3405C9.90537 10.6887 9.624 11.1039 9.43591 11.561C9.24783 12.0181 9.15692 12.5076 9.1687 12.9998C9.15692 13.4921 9.24783 13.9816 9.43591 14.4387C9.624 14.8958 9.90537 15.311 10.263 15.6592C10.6206 16.0074 11.0471 16.2814 11.5165 16.4645C11.986 16.6476 12.4888 16.7361 12.9944 16.7247C13.5 16.7361 14.0027 16.6476 14.4722 16.4645C14.9417 16.2814 15.3681 16.0074 15.7258 15.6592C16.0834 15.311 16.3648 14.8958 16.5528 14.4387C16.7409 13.9816 16.8318 13.4921 16.8201 12.9998C16.8318 12.5076 16.7409 12.0181 16.5528 11.561C16.3648 11.1039 16.0834 10.6887 15.7258 10.3405C15.3681 9.99226 14.9417 9.71832 14.4722 9.53519C14.0027 9.35205 13.5 9.26355 12.9944 9.27502Z" fill="#404040"/>
</svg>
